<?xml version="1.0" encoding="UTF-8" standalone="no"?>
<!DOCTYPE svg PUBLIC "-//W3C//DTD SVG 1.1//EN"
 "http://www.w3.org/Graphics/SVG/1.1/DTD/svg11.dtd">
<!-- Generated by graphviz version 2.40.1 (20161225.0304)
 -->
<!-- Title: workflow Pages: 1 -->
<svg width="365pt" height="288pt"
 viewBox="0.00 0.00 365.12 287.60" xmlns="http://www.w3.org/2000/svg" xmlns:xlink="http://www.w3.org/1999/xlink">
<g id="graph0" class="graph" transform="scale(1 1) rotate(0) translate(4 283.5999)">
<title>workflow</title>
<polygon fill="#ffffff" stroke="transparent" points="-4,4 -4,-283.5999 361.1239,-283.5999 361.1239,4 -4,4"/>
<text text-anchor="middle" x="178.5619" y="-12.3999" font-family="Times,serif" font-size="14.00" fill="#000000">软件被指派方工作流程</text>
<!-- layer0 -->
<g id="node1" class="node">
<title>layer0</title>
<text text-anchor="middle" x="27" y="-260.5999" font-family="Times,serif" font-size="10.00" fill="#000000">第一层</text>
</g>
<!-- layer1 -->
<g id="node2" class="node">
<title>layer1</title>
<text text-anchor="middle" x="27" y="-188.5999" font-family="Times,serif" font-size="10.00" fill="#000000">第二层</text>
</g>
<!-- layer0&#45;&gt;layer1 -->
<!-- layer2 -->
<g id="node3" class="node">
<title>layer2</title>
<text text-anchor="middle" x="27" y="-116.5999" font-family="Times,serif" font-size="10.00" fill="#000000">第三层</text>
</g>
<!-- layer1&#45;&gt;layer2 -->
<!-- layer3 -->
<g id="node4" class="node">
<title>layer3</title>
<text text-anchor="middle" x="27" y="-44.5999" font-family="Times,serif" font-size="10.00" fill="#000000">第四层</text>
</g>
<!-- layer2&#45;&gt;layer3 -->
<!-- swuf_new -->
<g id="node5" class="node">
<title>swuf_new</title>
<polygon fill="none" stroke="#000000" points="287,-279.5999 233,-279.5999 233,-243.5999 287,-243.5999 287,-279.5999"/>
<text text-anchor="middle" x="260" y="-260.5999" font-family="Times,serif" font-size="10.00" fill="#000000">新建</text>
</g>
<!-- swuf_doing -->
<g id="node6" class="node">
<title>swuf_doing</title>
<polygon fill="none" stroke="#000000" points="160,-207.5999 106,-207.5999 106,-171.5999 160,-171.5999 160,-207.5999"/>
<text text-anchor="middle" x="133" y="-188.5999" font-family="Times,serif" font-size="10.00" fill="#000000">进行中</text>
</g>
<!-- swuf_new&#45;&gt;swuf_doing -->
<g id="edge4" class="edge">
<title>swuf_new&#45;&gt;swuf_doing</title>
<path fill="none" stroke="#00ff00" d="M232.7553,-246.1541C214.1732,-235.6194 189.362,-221.5532 169.1328,-210.0847"/>
<polygon fill="#00ff00" stroke="#00ff00" points="170.625,-206.9073 160.1996,-205.0202 167.1727,-212.9968 170.625,-206.9073"/>
</g>
<!-- swuf_delay -->
<g id="node7" class="node">
<title>swuf_delay</title>
<polygon fill="none" stroke="#000000" points="232,-207.5999 178,-207.5999 178,-171.5999 232,-171.5999 232,-207.5999"/>
<text text-anchor="middle" x="205" y="-188.5999" font-family="Times,serif" font-size="10.00" fill="#000000">延期</text>
</g>
<!-- swuf_new&#45;&gt;swuf_delay -->
<g id="edge5" class="edge">
<title>swuf_new&#45;&gt;swuf_delay</title>
<path fill="none" stroke="#00ff00" d="M246.1212,-243.4313C239.7864,-235.1385 232.1616,-225.1569 225.2074,-216.0533"/>
<polygon fill="#00ff00" stroke="#00ff00" points="227.9175,-213.8353 219.0657,-208.0132 222.3548,-218.0846 227.9175,-213.8353"/>
</g>
<!-- swuf_delayCauseByOther -->
<g id="node8" class="node">
<title>swuf_delayCauseByOther</title>
<polygon fill="none" stroke="#000000" points="344,-207.5999 288,-207.5999 288,-171.5999 344,-171.5999 344,-207.5999"/>
<text text-anchor="middle" x="316" y="-188.5999" font-family="Times,serif" font-size="10.00" fill="#000000">外因延期</text>
</g>
<!-- swuf_new&#45;&gt;swuf_delayCauseByOther -->
<g id="edge6" class="edge">
<title>swuf_new&#45;&gt;swuf_delayCauseByOther</title>
<path fill="none" stroke="#00ff00" d="M274.1312,-243.4313C280.5811,-235.1385 288.3445,-225.1569 295.4252,-216.0533"/>
<polygon fill="#00ff00" stroke="#00ff00" points="298.3019,-218.0555 301.6786,-208.0132 292.7764,-213.7579 298.3019,-218.0555"/>
</g>
<!-- swuf_pause -->
<g id="node9" class="node">
<title>swuf_pause</title>
<polygon fill="none" stroke="#000000" points="278,-135.5999 224,-135.5999 224,-99.5999 278,-99.5999 278,-135.5999"/>
<text text-anchor="middle" x="251" y="-116.5999" font-family="Times,serif" font-size="10.00" fill="#000000">暂停</text>
</g>
<!-- swuf_new&#45;&gt;swuf_pause -->
<g id="edge7" class="edge">
<title>swuf_new&#45;&gt;swuf_pause</title>
<path fill="none" stroke="#00ff00" d="M258.8601,-243.3622C257.3251,-218.801 254.578,-174.8473 252.7721,-145.954"/>
<polygon fill="#00ff00" stroke="#00ff00" points="256.2477,-145.4517 252.1306,-135.6895 249.2613,-145.8884 256.2477,-145.4517"/>
</g>
<!-- swuf_cancle -->
<g id="node10" class="node">
<title>swuf_cancle</title>
<polygon fill="none" stroke="#000000" points="278,-63.5999 224,-63.5999 224,-27.5999 278,-27.5999 278,-63.5999"/>
<text text-anchor="middle" x="251" y="-44.5999" font-family="Times,serif" font-size="10.00" fill="#000000">取消</text>
</g>
<!-- swuf_new&#45;&gt;swuf_cancle -->
<g id="edge8" class="edge">
<title>swuf_new&#45;&gt;swuf_cancle</title>
<path fill="none" stroke="#00ff00" d="M287.0028,-254.1296C309.1054,-246.4296 338.9341,-232.0324 353,-207.5999 360.9829,-193.7336 354.7459,-187.5044 353,-171.5999 349.4231,-139.015 355.8967,-126.3858 337,-99.5999 330.2718,-90.0628 307.4977,-75.9457 287.0759,-64.5375"/>
<polygon fill="#00ff00" stroke="#00ff00" points="288.6735,-61.4218 278.2238,-59.6744 285.303,-67.557 288.6735,-61.4218"/>
</g>
<!-- swuf_doing&#45;&gt;swuf_delay -->
<g id="edge9" class="edge">
<title>swuf_doing&#45;&gt;swuf_delay</title>
<path fill="none" stroke="#0000ff" d="M160.2813,-189.5999C162.7377,-189.5999 165.1942,-189.5999 167.6507,-189.5999"/>
<polygon fill="#0000ff" stroke="#0000ff" points="167.7495,-193.1 177.7495,-189.5999 167.7495,-186.1 167.7495,-193.1"/>
</g>
<!-- swuf_doing&#45;&gt;swuf_delayCauseByOther -->
<g id="edge10" class="edge">
<title>swuf_doing&#45;&gt;swuf_delayCauseByOther</title>
<path fill="none" stroke="#0000ff" d="M150.0815,-207.8172C157.8462,-214.7981 167.615,-221.9571 178,-225.5999 211.4813,-237.3445 250.7201,-224.6603 278.7796,-211.2162"/>
<polygon fill="#0000ff" stroke="#0000ff" points="280.4787,-214.2795 287.8424,-206.662 277.3355,-208.0248 280.4787,-214.2795"/>
</g>
<!-- swuf_doing&#45;&gt;swuf_pause -->
<g id="edge11" class="edge">
<title>swuf_doing&#45;&gt;swuf_pause</title>
<path fill="none" stroke="#0000ff" d="M156.824,-171.4313C173.4897,-160.6195 195.9041,-146.9369 214.7446,-136.072"/>
<polygon fill="#0000ff" stroke="#0000ff" points="216.7094,-138.9809 223.6657,-130.9896 213.2443,-132.8987 216.7094,-138.9809"/>
</g>
<!-- swuf_doing&#45;&gt;swuf_cancle -->
<g id="edge12" class="edge">
<title>swuf_doing&#45;&gt;swuf_cancle</title>
<path fill="none" stroke="#0000ff" d="M146.6039,-171.3955C160.4659,-153.0178 182.7462,-123.9488 203,-99.5999 210.8171,-90.2023 219.6385,-80.1342 227.5668,-71.2679"/>
<polygon fill="#0000ff" stroke="#0000ff" points="230.1698,-73.6078 234.2565,-63.8328 224.966,-68.9257 230.1698,-73.6078"/>
</g>
<!-- swuf_finish -->
<g id="node11" class="node">
<title>swuf_finish</title>
<polygon fill="none" stroke="#000000" points="147,-63.5999 93,-63.5999 93,-27.5999 147,-27.5999 147,-63.5999"/>
<text text-anchor="middle" x="120" y="-44.5999" font-family="Times,serif" font-size="10.00" fill="#000000">完成</text>
</g>
<!-- swuf_doing&#45;&gt;swuf_finish -->
<g id="edge13" class="edge">
<title>swuf_doing&#45;&gt;swuf_finish</title>
<path fill="none" stroke="#0000ff" d="M121.2492,-171.424C115.4142,-161.3141 108.9861,-148.2494 106,-135.5999 101.1408,-115.0159 105.1806,-91.3737 110.147,-73.4876"/>
<polygon fill="#0000ff" stroke="#0000ff" points="113.566,-74.2737 113.118,-63.6883 106.8671,-72.2426 113.566,-74.2737"/>
</g>
<!-- swuf_delay&#45;&gt;swuf_delayCauseByOther -->
<g id="edge14" class="edge">
<title>swuf_delay&#45;&gt;swuf_delayCauseByOther</title>
<path fill="none" stroke="#ffa500" d="M232.3164,-189.5999C247.3669,-189.5999 262.4174,-189.5999 277.468,-189.5999"/>
<polygon fill="#ffa500" stroke="#ffa500" points="277.8876,-193.1 287.8875,-189.5999 277.8875,-186.1 277.8876,-193.1"/>
</g>
<!-- swuf_delay&#45;&gt;swuf_pause -->
<g id="edge15" class="edge">
<title>swuf_delay&#45;&gt;swuf_pause</title>
<path fill="none" stroke="#ffa500" d="M210.6553,-171.4313C215.0995,-163.2232 221.2024,-153.3605 227.3739,-144.3322"/>
<polygon fill="#ffa500" stroke="#ffa500" points="230.3412,-146.1981 233.26,-136.0132 224.6269,-142.1549 230.3412,-146.1981"/>
</g>
<!-- swuf_delay&#45;&gt;swuf_cancle -->
<g id="edge16" class="edge">
<title>swuf_delay&#45;&gt;swuf_cancle</title>
<path fill="none" stroke="#ffa500" d="M204.5302,-171.4419C204.6151,-152.8479 206.3368,-123.3822 215,-99.5999 218.4919,-90.0139 224.0173,-80.4534 229.701,-72.0997"/>
<polygon fill="#ffa500" stroke="#ffa500" points="232.613,-74.0449 235.6025,-63.8806 226.927,-69.9621 232.613,-74.0449"/>
</g>
<!-- swuf_delay&#45;&gt;swuf_finish -->
<g id="edge17" class="edge">
<title>swuf_delay&#45;&gt;swuf_finish</title>
<path fill="none" stroke="#ffa500" d="M194.2347,-171.3622C179.4813,-146.3682 152.874,-101.2923 135.8436,-72.4408"/>
<polygon fill="#ffa500" stroke="#ffa500" points="138.7753,-70.522 130.6779,-63.6895 132.7471,-74.0803 138.7753,-70.522"/>
</g>
<!-- swuf_delayCauseByOther&#45;&gt;swuf_pause -->
<g id="edge18" class="edge">
<title>swuf_delayCauseByOther&#45;&gt;swuf_pause</title>
<path fill="none" stroke="#ffc0cb" d="M293.6454,-171.4313C285.2661,-163.0539 275.9576,-152.9531 268.1087,-143.7749"/>
<polygon fill="#ffc0cb" stroke="#ffc0cb" points="270.7351,-141.4592 261.6471,-136.0132 265.3553,-145.9379 270.7351,-141.4592"/>
</g>
<!-- swuf_delayCauseByOther&#45;&gt;swuf_cancle -->
<g id="edge19" class="edge">
<title>swuf_delayCauseByOther&#45;&gt;swuf_cancle</title>
<path fill="none" stroke="#ffc0cb" d="M321.7107,-171.3211C326.5482,-152.368 331.0979,-122.3777 320,-99.5999 312.8402,-84.9049 299.5331,-73.0317 286.5012,-64.2008"/>
<polygon fill="#ffc0cb" stroke="#ffc0cb" points="288.364,-61.2376 278.0445,-58.8378 284.615,-67.1492 288.364,-61.2376"/>
</g>
<!-- swuf_delayCauseByOther&#45;&gt;swuf_finish -->
<g id="edge20" class="edge">
<title>swuf_delayCauseByOther&#45;&gt;swuf_finish</title>
<path fill="none" stroke="#ffc0cb" d="M314.9473,-171.5625C312.8129,-151.3854 306.3753,-118.9951 287,-99.5999 268.6082,-81.1892 200.4149,-63.3069 157.0641,-53.4438"/>
<polygon fill="#ffc0cb" stroke="#ffc0cb" points="157.6779,-49.9947 147.1554,-51.2301 156.1517,-56.8263 157.6779,-49.9947"/>
</g>
<!-- swuf_pause&#45;&gt;swuf_doing -->
<g id="edge21" class="edge">
<title>swuf_pause&#45;&gt;swuf_doing</title>
<path fill="none" stroke="#d3d3d3" d="M227.4309,-135.6031C210.5855,-146.5404 187.7761,-160.4614 168.7328,-171.429"/>
<polygon fill="#d3d3d3" stroke="#d3d3d3" points="166.9676,-168.4064 160.0071,-176.394 170.4295,-174.4904 166.9676,-168.4064"/>
</g>
<!-- swuf_pause&#45;&gt;swuf_delay -->
<g id="edge22" class="edge">
<title>swuf_pause&#45;&gt;swuf_delay</title>
<path fill="none" stroke="#d3d3d3" d="M245.212,-136.0132C240.7351,-144.2539 234.6152,-154.1244 228.4425,-163.1359"/>
<polygon fill="#d3d3d3" stroke="#d3d3d3" points="225.4896,-161.2495 222.5601,-171.4313 231.1996,-165.2986 225.4896,-161.2495"/>
</g>
<!-- swuf_pause&#45;&gt;swuf_delayCauseByOther -->
<g id="edge23" class="edge">
<title>swuf_pause&#45;&gt;swuf_delayCauseByOther</title>
<path fill="none" stroke="#d3d3d3" d="M273.5991,-136.0132C281.9962,-144.4238 291.2993,-154.5322 299.1196,-163.6922"/>
<polygon fill="#d3d3d3" stroke="#d3d3d3" points="296.4673,-165.9767 305.5501,-171.4313 301.8512,-161.5031 296.4673,-165.9767"/>
</g>
<!-- swuf_pause&#45;&gt;swuf_cancle -->
<g id="edge24" class="edge">
<title>swuf_pause&#45;&gt;swuf_cancle</title>
<path fill="none" stroke="#d3d3d3" d="M251,-99.4313C251,-91.7309 251,-82.5743 251,-74.0165"/>
<polygon fill="#d3d3d3" stroke="#d3d3d3" points="254.5001,-74.0131 251,-64.0132 247.5001,-74.0132 254.5001,-74.0131"/>
</g>
<!-- swuf_closed -->
<g id="node12" class="node">
<title>swuf_closed</title>
<polygon fill="none" stroke="#000000" points="350,-63.5999 296,-63.5999 296,-27.5999 350,-27.5999 350,-63.5999"/>
<text text-anchor="middle" x="323" y="-44.5999" font-family="Times,serif" font-size="10.00" fill="#000000">关闭</text>
</g>
</g>
</svg>
